<svg class="logo" version="1.1" id="Layer_1" xmlns="http://www.w3.org/2000/svg" xmlns:xlink="http://www.w3.org/1999/xlink" x="0px" y="0px"
	width="100%" viewBox="0 0 1024 720" enable-background="new 0 0 1024 720" xml:space="preserve">
<path fill="#ffffffff" opacity="1.000000" stroke="none" 
	d="
M131.475494,448.474518 
	C161.049225,413.193634 178.128464,373.187408 175.347702,327.186768 
	C173.377563,294.595734 155.558273,270.236694 126.889565,254.189865 
	C112.968094,246.397583 92.686539,252.858932 84.597519,259.975952 
	C75.185989,268.256592 76.112793,276.080139 87.096970,281.968018 
	C89.291046,283.144135 91.588028,284.186096 93.937004,285.004486 
	C100.724358,287.369232 104.042511,292.104462 104.473167,299.226776 
	C105.691048,319.368774 84.609344,341.903229 65.063881,341.265717 
	C58.796207,341.061279 53.509472,338.393250 48.529919,334.889099 
	C46.747112,333.634521 46.279850,331.685242 45.741272,329.743195 
	C32.408852,281.667572 60.082783,240.292862 110.849968,231.839691 
	C166.526062,222.569107 205.616241,259.856110 216.333130,304.629974 
	C219.874100,319.423798 219.822128,334.324219 218.000931,349.304840 
	C217.909012,350.060913 217.870407,350.823486 217.728638,352.521118 
	C232.609482,337.884552 249.194809,327.091644 266.014191,316.630707 
	C268.476196,315.099426 269.075439,312.989899 269.138763,310.314270 
	C269.418121,298.512665 269.402618,286.711243 270.608978,274.930389 
	C273.038239,251.207352 281.738922,230.149445 296.876740,211.798370 
	C301.156799,206.609802 306.529724,202.627197 313.008209,200.376099 
	C317.757568,198.725845 321.480133,199.918228 324.120453,204.303864 
	C328.857056,212.171463 330.903809,220.918640 332.144897,229.838669 
	C335.225861,251.982727 331.173401,273.312103 323.737030,294.048309 
	C317.936890,310.221924 307.017883,322.676300 293.374908,332.858032 
	C291.639374,334.153259 290.034454,335.765625 288.100189,336.628571 
	C278.410828,340.951324 276.081848,348.516205 277.178619,358.444550 
	C277.942627,365.360565 277.448303,372.430328 277.293701,379.426483 
	C277.221832,382.679291 278.288788,384.188202 281.681244,384.688599 
	C306.848022,388.400879 322.392426,405.511261 324.414459,431.146729 
	C326.670868,459.753479 312.862549,480.687164 293.106628,489.662872 
	C289.639557,491.238098 285.966125,492.445251 282.283691,493.433838 
	C279.185699,494.265472 278.023773,495.830414 278.072937,499.072632 
	C278.254822,511.069305 278.170868,523.069824 278.225006,535.068726 
	C278.249115,540.415955 277.760742,545.702209 276.667389,550.936951 
	C271.425720,576.033447 249.875076,584.712463 229.704758,581.728088 
	C210.314804,578.859131 198.428192,568.451111 195.250778,551.875000 
	C193.092514,540.615601 195.217072,530.166748 204.893616,522.670715 
	C212.295853,516.936462 220.370651,516.088135 228.729538,520.687805 
	C236.208496,524.803223 240.928528,534.052002 240.013474,542.586853 
	C238.608963,555.687012 231.910583,561.943298 218.849899,562.370422 
	C217.722733,562.407288 216.598251,562.526489 215.093094,562.634705 
	C215.927948,565.443909 217.988342,566.533997 219.920624,567.679626 
	C241.077606,580.223938 264.044250,569.788696 268.455627,545.305542 
	C271.250519,529.794067 269.214233,514.051270 269.634308,498.419006 
	C269.711853,495.534546 267.710327,495.344482 265.560699,495.361084 
	C241.178162,495.549469 222.482559,484.201263 207.370407,466.131531 
	C195.491028,451.927246 190.484253,435.017426 189.508835,415.823029 
	C184.219070,422.460785 179.386017,428.456421 174.626144,434.509613 
	C146.498093,470.280243 110.171257,494.820435 68.488708,512.022522 
	C64.930443,513.491028 61.277267,514.601135 57.332451,514.351013 
	C55.590816,514.240601 53.948143,514.033569 53.207138,512.183533 
	C52.484898,510.380493 53.384014,508.932861 54.503174,507.642151 
	C56.709286,505.097870 59.467628,503.212738 62.239319,501.355865 
	C80.230713,489.302673 98.714279,477.929443 115.164856,463.727051 
	C120.706879,458.942474 125.895760,453.748840 131.475494,448.474518 
M269.677521,475.464905 
	C269.671112,455.982422 269.671570,436.499939 269.654236,417.017456 
	C269.648834,410.980164 269.284119,410.737457 263.350250,412.289917 
	C259.080933,413.406891 255.348083,415.503235 251.976700,418.311096 
	C238.318268,429.686523 237.645203,451.013672 250.538895,461.249451 
	C252.279663,462.631378 256.263458,463.488831 254.455505,466.480621 
	C252.700851,469.384216 249.679840,466.801453 247.313568,465.964905 
	C246.237091,465.584320 245.240433,464.888947 244.309662,464.198669 
	C231.306442,454.555450 226.899399,441.034821 229.293335,425.847076 
	C232.536438,405.272034 244.899445,391.744934 264.992401,385.753174 
	C268.501007,384.706909 269.797150,383.064545 269.701660,379.438843 
	C269.482605,371.118683 269.647156,362.788910 269.593994,354.463440 
	C269.586121,353.232422 270.103668,351.741943 268.421326,350.836334 
	C267.889435,351.045502 267.211853,351.184113 266.679535,351.540039 
	C253.670898,360.238037 240.436050,368.671509 228.842911,379.253387 
	C214.478348,392.364838 204.480057,408.152344 203.462234,428.035004 
	C201.866440,459.207703 227.139053,485.669708 258.853607,486.838013 
	C269.683472,487.236969 269.683472,487.237000 269.677521,475.464905 
M292.677734,251.174942 
	C281.534912,268.516632 275.339020,287.114105 277.770447,308.447601 
	C279.072113,307.921234 279.894043,307.737152 280.549103,307.301880 
	C291.422760,300.075989 301.503021,291.835449 309.382599,281.405884 
	C317.047211,271.260895 323.473846,260.284149 323.707977,246.991806 
	C323.899323,236.128662 315.707214,231.632858 306.171448,237.087753 
	C300.495972,240.334366 296.757050,245.412872 292.677734,251.174942 
M284.594696,413.880219 
	C278.430573,411.546753 277.410797,412.108093 277.444580,418.947052 
	C277.524933,435.229156 277.857513,451.509949 278.047485,467.791718 
	C278.112946,473.402618 278.057892,479.014923 278.057892,484.643311 
	C290.692352,484.132019 302.157990,471.993195 305.489288,456.286560 
	C309.412140,437.790619 302.117035,422.611908 284.594696,413.880219 
z"/>
<path fill="#ffffffff" opacity="1.000000" stroke="none" 
	d="
M641.033813,485.214966 
	C650.425476,448.891937 662.665344,413.763489 670.911987,377.575043 
	C676.536011,352.895752 679.981079,327.732544 678.497253,302.335724 
	C677.548828,286.102905 675.760010,269.785431 668.213257,254.855911 
	C665.465210,249.419495 661.847351,244.670792 656.878235,241.103104 
	C652.810974,238.182907 648.389526,236.984161 643.227844,237.949936 
	C619.819946,242.329666 596.149902,244.770432 572.475403,247.144135 
	C567.110962,247.681976 561.808289,246.990585 556.575134,246.018448 
	C553.392151,245.427185 550.122559,243.927017 549.973572,240.202255 
	C549.838745,236.833282 553.004944,235.620392 555.697693,234.771027 
	C568.598267,230.701874 582.015930,229.117416 595.257202,226.662247 
	C612.829956,223.403946 630.811401,224.681015 648.388245,221.670929 
	C670.860657,217.822433 693.635437,216.328629 716.164124,212.900436 
	C719.420410,212.404907 721.229309,211.116882 722.412537,208.175919 
	C723.652893,205.092987 725.172119,202.109909 726.739380,199.173950 
	C728.666016,195.564774 731.712097,195.322937 735.323059,196.399078 
	C739.027161,197.502960 737.763794,200.094040 737.502136,202.479935 
	C736.744934,209.383789 737.194641,210.171249 744.240967,209.628021 
	C759.828552,208.426331 775.385193,206.826065 790.957520,205.422623 
	C804.711731,204.183029 818.453613,202.736252 832.231079,201.845963 
	C846.680298,200.912262 861.162170,200.132034 875.635437,200.021622 
	C890.265564,199.910019 904.959900,200.196930 919.153748,204.615097 
	C920.885925,205.154297 922.674683,205.740448 924.190186,206.696503 
	C926.786438,208.334396 929.522339,210.763763 928.444641,213.869629 
	C927.256348,217.294601 923.525085,218.115738 920.037048,217.859833 
	C918.428162,217.741791 916.721191,217.172318 915.316589,216.360977 
	C908.143127,212.217438 900.359070,211.200638 892.233032,211.073654 
	C866.860413,210.677170 841.686401,213.112503 816.515625,215.850861 
	C795.674927,218.118164 774.806396,220.128372 753.954773,222.296494 
	C749.324463,222.777969 744.724915,223.572540 740.090271,223.990494 
	C735.090759,224.441345 732.643555,226.992935 731.379822,231.900162 
	C722.832214,265.092072 714.776550,298.436615 705.148193,331.317810 
	C692.720215,373.759430 686.902832,417.535126 677.271484,460.524841 
	C672.216797,483.086609 667.092285,505.665833 657.548889,526.911499 
	C653.525513,535.868347 649.564270,538.209961 639.981506,537.293640 
	C633.751160,536.697937 630.964905,533.223633 631.414612,526.866333 
	C632.422974,512.610168 637.784668,499.366180 641.033813,485.214966 
M698.414490,281.799622 
	C698.639099,281.993622 698.863708,282.187622 699.088318,282.381622 
	C699.286072,282.138275 699.564026,281.925476 699.670105,281.647217 
	C705.783386,265.604523 710.246155,249.061737 714.488708,232.456482 
	C715.447632,228.703522 713.223450,227.568146 710.021484,227.964478 
	C703.755249,228.740173 697.488220,229.568100 691.268921,230.647430 
	C685.829102,231.591522 679.948547,230.825500 674.631592,234.565125 
	C677.723816,237.742065 680.949158,240.340363 683.586304,243.530884 
	C692.652710,254.499557 695.646667,267.783234 698.414490,281.799622 
z"/>
<path fill="#ffffffff" opacity="1.000000" stroke="none" 
	d="
M348.470428,355.299957 
	C354.911560,350.807739 361.434326,350.342590 368.186523,353.363922 
	C374.999847,356.412567 377.808960,362.242493 375.432526,369.338165 
	C371.640594,380.660339 363.242096,388.148895 353.533813,394.397339 
	C352.836273,394.846283 352.063080,395.177856 351.324615,395.563110 
	C343.679810,399.551208 342.911072,401.015991 345.030121,407.557617 
	C347.756042,415.972809 352.781128,419.724701 359.913300,418.522034 
	C369.154175,416.963745 377.164185,412.566101 384.860626,407.487915 
	C385.277191,407.213074 385.642914,406.858551 386.067902,406.599487 
	C395.003479,401.153839 401.405762,394.152496 401.889648,382.913483 
	C402.028168,379.696228 402.981476,376.361511 404.613983,373.370972 
	C405.685913,371.407410 406.802216,369.618500 409.408173,369.372559 
	C411.735657,370.909790 411.299377,373.371429 411.324738,375.616119 
	C411.442993,386.067352 409.201294,396.251740 407.767090,406.528412 
	C407.221680,410.436523 406.806549,414.362000 407.815094,418.221649 
	C410.531158,418.880463 411.273010,416.936737 412.194824,415.472687 
	C419.207611,404.334686 426.152069,393.153656 433.169342,382.018524 
	C434.677795,379.624878 434.909393,377.051483 434.814880,374.347290 
	C434.393646,362.292725 439.050842,352.340820 447.392517,343.885498 
	C449.323914,341.927795 451.542145,340.560272 454.166016,339.840668 
	C457.371582,338.961456 460.549225,338.887756 463.037720,341.448486 
	C465.544189,344.027802 464.657379,347.026520 463.407684,349.846741 
	C460.506378,356.394104 457.499054,362.894379 454.564362,369.427094 
	C451.862183,375.442047 454.124939,379.132172 460.917328,379.713257 
	C468.549255,380.366150 475.495514,377.786926 481.866089,374.148926 
	C487.857178,370.727631 494.288483,367.878448 499.173248,362.628418 
	C501.958984,359.634369 505.685608,360.299438 508.942902,361.944946 
	C512.416687,363.699860 510.440552,366.611664 509.742615,368.980347 
	C506.309845,380.630676 501.895660,391.980011 499.036591,403.808655 
	C498.841278,404.616730 498.548737,405.412231 498.452423,406.231384 
	C498.090881,409.306702 498.206665,412.715973 500.563293,414.620575 
	C502.775116,416.408203 505.708588,414.618896 507.988037,413.421906 
	C527.074158,403.400146 542.568604,389.238617 555.311157,371.959534 
	C556.694031,370.084412 558.106140,368.215363 559.304932,366.223297 
	C561.795532,362.084717 565.518738,362.101135 569.336304,363.398499 
	C573.290710,364.742340 573.001160,368.214813 572.301636,371.382202 
	C571.097290,376.835083 569.611267,382.225739 568.166687,387.946625 
	C571.340149,388.211151 572.410645,386.004547 573.773743,384.587433 
	C583.267761,374.717133 593.264893,365.441895 604.581665,357.660370 
	C609.200317,354.484528 614.124756,353.129211 619.708252,354.538239 
	C623.503357,355.495941 625.248657,357.805969 625.352905,361.681549 
	C625.459473,365.643433 624.047180,369.211182 622.735840,372.789764 
	C619.126404,382.639069 615.355774,392.429260 611.734741,402.274384 
	C610.607971,405.338104 609.220642,408.393555 609.593628,412.685425 
	C625.407227,405.112183 636.512634,390.463654 653.663696,385.828857 
	C654.667358,389.137054 652.638977,390.265778 651.245117,391.425079 
	C639.975769,400.797821 628.717834,410.189423 617.249329,419.314972 
	C612.621704,422.997162 607.270813,425.364777 601.036865,424.549713 
	C596.989990,424.020599 594.783447,421.936127 594.638428,417.669281 
	C594.459717,412.410065 595.546143,407.428650 597.269531,402.513550 
	C600.849670,392.302979 604.360413,382.068115 607.913025,371.847870 
	C608.346863,370.599823 609.027954,369.390869 607.984192,367.758789 
	C603.903076,368.929108 601.100281,372.039490 598.172363,374.787567 
	C589.184692,383.223175 580.363342,391.835663 571.452393,400.353333 
	C568.025696,403.628784 564.161865,406.229248 559.402832,407.078278 
	C552.986450,408.223022 549.064819,404.150757 550.348450,397.723663 
	C550.894531,394.989288 551.632812,392.293304 552.501099,388.674133 
	C542.257812,400.494049 531.646851,410.506592 518.900513,418.018158 
	C510.778992,422.804260 502.193909,425.424316 492.645264,423.406433 
	C484.383087,421.660461 479.986572,415.357025 481.183014,406.880798 
	C482.589844,396.914185 486.316559,387.645416 490.307739,377.216614 
	C481.112396,383.259888 471.704742,385.348938 461.855194,385.751678 
	C459.198151,385.860321 456.408081,386.360962 453.901001,385.758331 
	C448.051971,384.352509 444.821625,386.705017 441.747375,391.570923 
	C436.058899,400.574677 429.774353,409.218292 423.440552,417.792084 
	C419.154816,423.593445 414.226807,428.882996 406.623260,430.325897 
	C399.418060,431.693176 394.846893,428.031952 394.875488,420.673157 
	C394.888275,417.385345 395.689117,414.100616 396.231323,410.080200 
	C392.918579,412.460327 389.999207,414.664734 386.973785,416.712433 
	C375.788239,424.283081 363.965668,429.523621 349.961517,426.601349 
	C334.629883,423.402008 326.489838,412.825134 327.803467,397.115234 
	C329.178406,380.672394 335.978912,366.737457 348.470428,355.299957 
M350.261780,374.803284 
	C349.441071,377.392426 347.748077,379.832977 348.649902,382.890503 
	C355.236511,379.521088 361.114807,369.352020 359.582703,363.897583 
	C354.996155,365.991638 352.646790,369.937042 350.261780,374.803284 
z"/>
<path fill="#ffffffff" opacity="1.000000" stroke="none" 
	d="
M846.223389,345.795471 
	C847.125488,345.687531 847.624634,345.657715 848.121460,345.605469 
	C859.545654,344.404816 862.432861,346.743317 863.523621,358.143311 
	C865.137878,358.602173 865.835327,357.198120 866.750916,356.422546 
	C870.378784,353.349701 874.562622,352.052002 878.746826,354.395721 
	C882.988525,356.771667 881.422913,361.187378 880.799683,364.827698 
	C878.583923,377.768982 875.877319,390.630676 873.872742,403.602264 
	C872.270752,413.969360 872.044800,424.477478 872.336548,434.981415 
	C872.439453,438.686249 875.176697,441.170929 876.615906,444.217590 
	C871.194885,447.118500 863.940979,442.766724 862.605896,436.859344 
	C860.391724,427.062469 858.998901,417.225922 860.171631,407.175629 
	C860.922913,400.737396 861.906067,394.324493 862.556091,387.877106 
	C862.797119,385.486267 863.366455,382.969788 862.128418,380.228119 
	C857.835754,383.415405 854.582825,387.362000 851.182800,391.137085 
	C842.587708,400.680084 833.685913,409.884552 823.272522,417.505432 
	C818.686157,420.861877 813.631470,422.756042 807.928894,422.612701 
	C800.896912,422.435974 797.771851,418.686493 798.238953,411.641479 
	C798.817017,402.923737 802.514343,395.260284 806.177429,387.622070 
	C812.069275,375.336243 820.116394,364.562073 830.031738,355.211029 
	C834.581421,350.920288 839.924927,347.911987 846.223389,345.795471 
M845.257568,382.760895 
	C853.790161,375.045898 849.145813,365.681183 849.331482,356.593506 
	C836.231812,360.150482 809.671997,400.926910 812.526672,413.179047 
	C825.909912,405.750000 835.787964,395.010345 845.257568,382.760895 
z"/>
<path fill="#ffffffff" opacity="1.000000" stroke="none" 
	d="
M891.873108,405.501038 
	C887.893860,402.630829 888.168091,398.839935 889.125427,395.288513 
	C891.722595,385.653442 894.568054,376.082031 897.494568,366.540466 
	C898.790466,362.315186 902.028442,360.842896 906.538269,361.929474 
	C910.925598,362.986603 911.981079,366.104614 911.072571,369.958008 
	C909.704529,375.760254 907.996887,381.482391 906.284790,387.786743 
	C909.290405,387.259888 910.813721,385.282135 912.450745,383.598236 
	C921.983887,373.791809 931.758423,364.273682 943.187195,356.621765 
	C947.362244,353.826477 951.797546,352.298615 956.858032,353.190125 
	C962.922424,354.258484 965.216614,357.481628 963.727234,363.488647 
	C960.554443,376.285126 955.196777,388.336090 950.719116,400.687225 
	C949.428650,404.246765 948.055176,407.785553 947.830933,412.166321 
	C963.761047,404.621033 974.888672,389.646729 992.362610,385.021759 
	C993.275696,388.145294 991.556030,389.172089 990.231812,390.273834 
	C979.224854,399.432343 968.206665,408.577759 957.138123,417.661713 
	C953.497742,420.649414 949.424683,422.909302 944.740540,423.845947 
	C936.262451,425.541199 931.801086,421.259705 933.162720,412.815460 
	C935.353882,399.227173 941.424133,386.856262 945.361938,373.816711 
	C946.014465,371.656006 947.540833,369.620209 946.265076,366.848358 
	C942.586670,368.248322 939.918274,370.944275 937.227722,373.493683 
	C928.401855,381.856506 919.774292,390.430267 910.882385,398.721100 
	C905.708679,403.545013 900.174683,407.981445 891.873108,405.501038 
z"/>
<path fill="#ffffffff" opacity="1.000000" stroke="none" 
	d="
M765.025635,378.006592 
	C755.504761,390.655426 746.353882,403.143860 736.840759,415.349884 
	C733.217957,419.998138 729.616089,425.082977 723.169922,426.390442 
	C715.189880,428.009033 711.398132,424.260101 713.804871,416.540009 
	C718.120911,402.695587 724.843140,389.795349 730.219421,376.359650 
	C732.876343,369.719666 735.794189,363.178009 738.796387,356.685394 
	C739.961792,354.164856 741.227234,351.537445 744.192871,350.422699 
	C748.371643,348.851990 750.990601,350.838135 750.393982,355.224670 
	C749.446472,362.191986 746.538879,368.636658 744.957275,375.438934 
	C744.578186,377.069366 744.041260,378.626617 744.776489,381.128998 
	C749.245544,375.962402 753.431030,371.170715 757.561707,366.332306 
	C760.479126,362.915070 763.247070,359.368103 766.218201,355.999451 
	C769.606323,352.157990 774.055298,350.401886 779.094482,350.362457 
	C784.075012,350.323486 787.743530,352.511658 789.417847,357.419800 
	C791.573364,363.738983 791.845764,370.132782 789.832825,376.526947 
	C789.238831,378.413818 788.447571,380.522278 785.921631,380.417847 
	C783.707397,380.326294 782.253113,378.840454 781.525085,376.854980 
	C780.111145,372.998962 778.851685,369.086334 777.380066,364.761871 
	C771.647705,368.037567 769.232178,373.634766 765.025635,378.006592 
z"/>
<path fill="#ffffffff" opacity="1.000000" stroke="none" 
	d="
M510.743896,326.215942 
	C514.962280,325.418060 518.681702,325.423920 522.317017,327.505341 
	C521.610107,331.453186 519.644226,334.772797 517.976196,338.127197 
	C515.819946,342.463501 511.928253,344.218109 507.151733,343.297577 
	C503.581451,342.609528 501.083466,340.437653 500.765198,336.634155 
	C500.353210,331.710449 503.421356,329.057312 507.506134,327.270630 
	C508.412598,326.874176 509.392639,326.645996 510.743896,326.215942 
z"/>
</svg>